<?xml version="1.0" encoding="utf-8"?>
<!-- Generator: Adobe Illustrator 24.3.0, SVG Export Plug-In . SVG Version: 6.00 Build 0)  -->
<svg version="1.1" id="Слой_2" xmlns="http://www.w3.org/2000/svg" xmlns:xlink="http://www.w3.org/1999/xlink" x="0px" y="0px"
	 viewBox="0 0 50 50" style="enable-background:new 0 0 50 50;" xml:space="preserve">
<style type="text/css">
	.st0{fill:#FFFFFF;}
</style>
<polygon points="48.96,32.46 50,27.46 43.42,24.13 43.33,22.71 49.08,18.33 47.29,13.58 40.13,14.42 39.08,13.25 41.58,6.46 
	37.42,3.38 31.79,7.96 30.46,7.58 28.88,0.38 23.75,0 21.5,7 20.08,7.29 15,2.25 10.46,4.75 12.25,11.83 11.25,12.92 4.13,11.33 
	1.83,15.88 7.21,20.96 6.83,22.38 0,24.93 0.46,29.96 7.63,31.25 8.17,32.71 3.88,38.5 7.04,42.5 13.67,39.67 14.96,40.67 
	14.42,47.83 19.25,49.5 23.42,43.46 24.38,43.58 28.46,50 33.29,48.75 33.54,41.46 34.79,40.75 41.25,44.25 44.71,40.54 41,34.33 
	41.67,33.08 "/>
<circle class="st0" cx="24.99" cy="24.99" r="8.17"/>
</svg>
