<?xml version="1.0" encoding="utf-8"?>
<!-- Generator: Adobe Illustrator 24.3.0, SVG Export Plug-In . SVG Version: 6.00 Build 0)  -->
<svg version="1.1" id="Слой_2" xmlns="http://www.w3.org/2000/svg" xmlns:xlink="http://www.w3.org/1999/xlink" x="0px" y="0px"
	 viewBox="0 0 1200 800" style="enable-background:new 0 0 1200 800;" xml:space="preserve">
<style type="text/css">
	.st0{stroke:#000000;stroke-miterlimit:10;}
</style>
<path class="st0" d="M1139.5,535.5c-11.8-88.3-31.5-177.5-62-269c-30.6-91.8-46.5-138.3-79-169c-50.3-47.5-119.9-67.9-158-79
	c-36.5-10.7-68-15.6-90-18c-3.7,7.7-7.3,15.3-11,23c34.1,8,82.9,23,136,53c49.5,28,97.5,66.2,94,72c-3.9,6.5-66.6-40-162-71
	c-162.1-52.6-306.1-23.6-354-14c-30.2,6.1-80.4,16.2-141,43c-48,21.2-80,43-82,40c-2.4-3.6,39.2-39.3,88-68
	c54.1-31.8,105.1-48.1,143-57c-5-7-10-14-15-21c-33.4,4.5-81.1,14.1-135,36c-39.9,16.2-78.5,31.9-112,65
	c-18.6,18.4-35.7,42.2-68,139c-21.9,65.6-49.9,151.3-68,280c-7.8,55.5-11.3,101.4-13,132c33.6,34.2,95.8,88.2,189,121
	c52.4,18.5,99.7,25,136,27c13.3-18.7,26.7-37.3,40-56c-38-13-68.9-28.5-92-42c-43.5-25.4-71.9-50.8-92-69c-3.2-2.9-29.7-26.9-28-29
	c1.5-1.9,24.1,15.4,47,30c0,0,40.8,26.1,106,51c193.3,73.9,402,24,402,24c35.6-8.5,129.9-31,205-85c10.3-7.4,33.4-24.9,35-23
	c2,2.3-28.7,33.5-62,60c-14.1,11.2-42.6,32.8-83,54c-26.4,13.9-49.9,23.5-68,30c12.3,18.3,24.7,36.7,37,55c39-1.6,99.1-8.7,166-37
	c80.3-33.9,133.4-82.5,162-113C1148.9,621.9,1145.8,582.4,1139.5,535.5z M437,547.5c-47.8,0-86.5-44.3-86.5-99
	c0-54.7,38.7-99,86.5-99s86.5,44.3,86.5,99C523.5,503.2,484.8,547.5,437,547.5z M763,547.5c-47.8,0-86.5-44.3-86.5-99
	c0-54.7,38.7-99,86.5-99s86.5,44.3,86.5,99C849.5,503.2,810.8,547.5,763,547.5z"/>
</svg>
