<?xml version="1.0" encoding="utf-8"?>
<!-- Generator: Adobe Illustrator 24.3.0, SVG Export Plug-In . SVG Version: 6.00 Build 0)  -->
<svg version="1.1" id="Слой_2" xmlns="http://www.w3.org/2000/svg" xmlns:xlink="http://www.w3.org/1999/xlink" x="0px" y="0px"
	 viewBox="0 0 800 800" style="enable-background:new 0 0 800 800;" xml:space="preserve">
<path d="M400,76.5C221.3,76.5,76.5,221.3,76.5,400S221.3,723.5,400,723.5S723.5,578.7,723.5,400S578.7,76.5,400,76.5z M480.5,272.5
	c-13.7,0-27.3,0-41,0c-2.5,0.6-8,2.2-13,7c-6.4,6.2-7.7,13.6-8,16c0,9.3,0,18.7,0,28c20.7,0,41.3,0,62,0c0,22.7,0,45.3,0,68
	c-21,0-42,0-63,0c0,70,0,140,0,210c-29.3,0-58.7,0-88,0c0-69.7,0-139.3,0-209c-19.3-0.3-38.7-0.7-58-1c0-22.3,0-44.7,0-67
	c19,0,38,0,57,0c0-16,0-32,0-48c1-8.6,3.9-23.3,14-38c19.7-28.7,51.1-34.8,58-36c26.7,0,53.3,0,80,0
	C480.5,225.8,480.5,249.2,480.5,272.5z"/>
</svg>
