<?xml version="1.0" encoding="utf-8"?>
<!-- Generator: Adobe Illustrator 24.3.0, SVG Export Plug-In . SVG Version: 6.00 Build 0)  -->
<svg version="1.1" id="Слой_1" xmlns="http://www.w3.org/2000/svg" xmlns:xlink="http://www.w3.org/1999/xlink" x="0px" y="0px"
	 viewBox="0 0 515 55" style="enable-background:new 0 0 515 55;" xml:space="preserve">
<style type="text/css">
	.st0{fill:none;stroke:#020203;stroke-miterlimit:10;}
	.st1{fill:#020203;stroke:#020203;stroke-miterlimit:10;}
</style>
<g>
	<path d="M61.2,18.8c0.4-0.2,0.7-0.3,0.9-0.3c0.3,0,1.1,0.3,2.4,0.8c1.3,0.5,2.2,1,2.6,1.3l0.9,0.7l-1,0.3c-0.7,0.2-1.1,0.3-1.2,0.3
		l-2.4,0.8c-1.2,0.4-2.2,0.6-3,0.6c-0.4,0-0.8,0-1,0c-0.2,0-0.6,0-1,0c-0.5,0-1,0.1-1.3,0.3c-0.5,0.3-5,2-13.4,5.1
		c-8.9,3.3-13.4,5-13.4,5c0,0.1,1.3,0.2,3.9,0.2c3.8,0,8.4-0.1,14-0.3c5.5-0.2,8.6-0.3,9.2-0.5c0.5-0.1,0.8-0.2,0.9-0.2
		c0.4,0,1,0.3,1.9,0.8c1,0.5,1.5,0.8,1.7,0.8l0.1,0c0.1,0,0.3,0,0.4,0c0.1,0,0.3,0,0.5,0c0.6,0,1,0.2,1.1,0.7v0.3
		c0,0.4-0.4,0.9-1.3,1.6c-0.9,0.7-1.6,1.1-2.2,1.1c-0.1,0-0.2,0-0.4,0c-0.2,0-0.3,0-0.4,0h-0.9c-3.4,0-11.5,0.2-24.2,0.6
		c-12.7,0.4-19.3,0.7-19.7,0.8c-0.2,0.1-0.4,0.1-0.7,0.1c-0.4,0-1.3-0.1-2.5-0.4c-1.6-0.4-2.4-0.6-2.4-0.8c0-0.2-0.2-0.3-0.6-0.3
		c-0.5,0-1.5-0.2-2.9-0.7c-1.4-0.5-2.1-0.8-2.1-1c0-0.3,0.5-0.5,1.4-0.5c0.4,0,0.8,0.1,1.2,0.2c0.2,0.1,0.4,0.1,0.7,0.1
		c0.6,0,1.8-0.3,3.7-0.8l3.7-1l1.9,0.7c1.1,0.4,1.8,0.5,2.2,0.5c0.1,0,0.1,0,0.1,0c0-0.1-0.4-0.3-1.3-0.7c-1.1-0.4-1.7-0.8-1.7-1
		c0-0.1,0.1-0.3,0.4-0.4c0.2-0.1,6.3-2.1,18.2-6.1c12.1-3.9,19.1-6.3,21.1-7.1c2.2-0.9,3.7-1.3,4.3-1.3C60.3,19,60.8,18.9,61.2,18.8
		z M21.8,38.3l0.8,0h-4h-4c0.2,0,0.4,0,0.7,0c0.3,0,0.8,0,1.5,0s1.3,0,1.7,0c0.4,0,1,0,1.7,0C21.1,38.3,21.6,38.3,21.8,38.3z
		 M34.9,34.5c0.3,0.1,0.5,0.1,0.7,0c0.1-0.1,0-0.1-0.1-0.1c-0.1,0-0.2,0-0.3,0c-0.2,0-0.3,0-0.4,0C34.7,34.4,34.7,34.4,34.9,34.5z"
		/>
	<path d="M90.4,24.3c1-0.4,1.6-0.6,2-0.6c0.3,0,0.5,0.3,0.5,0.8c0,0.2,0,0.6-0.1,1.4c0,0.4-0.1,0.8-0.1,1.4c0,0.8,0.1,1.2,0.4,1.2
		c0.2,0,0.4-0.1,0.6-0.3c0.3-0.2,0.3-0.4-0.1-0.5c-0.1,0-0.1-0.1-0.1-0.2c0-0.2,1.2-1,3.5-2.2c0.8-0.4,1.4-0.7,1.9-0.8
		s1.3-0.1,2.5-0.1c1.8,0,2.6,0.1,2.5,0.2c-0.1,0.1-3.1,2.7-9.1,7.7l-9,7.4l-2.8,1c-1.2,0.4-2.1,0.8-2.8,1.1
		c-0.7,0.3-1.4,0.9-2.3,1.7c-1.4,1.1-2.3,1.7-2.6,1.7c-0.2,0-0.2-0.1-0.2-0.3c0-0.2,2.9-2.7,8.6-7.5c5.8-4.9,8.8-7.4,8.9-7.5
		c0.2-0.2,0-0.3-0.4-0.3l-0.2,0h-0.2c-0.5,0-1.1-0.3-1.8-0.8c-0.5-0.4-0.9-0.7-1-1c-0.1-0.3-0.2-0.7-0.2-1.4c0-0.7,0.1-1.2,0.2-1.4
		C89.1,24.9,89.6,24.6,90.4,24.3z"/>
	<path d="M139.8,12.8c1-0.7,1.6-1.1,2-1.1c0.1,0,0.2,0.1,0.2,0.2c0,0.1-0.5,0.6-1.5,1.6c-1,1-1.5,1.9-1.5,2.9c0,0.7-0.2,1.2-0.6,1.7
		c-0.4,0.4-1.7,1.6-3.9,3.6c-3,2.6-4.5,3.9-4.5,4c0,0.1,1.4,0.2,4.1,0.2h4.1l0.7,1.1l0.9,1l-0.9,0.4c-0.1,0.1-0.5,0.2-1.1,0.5
		c-0.6,0.3-1.5,0.7-2.6,1.3c-1.1,0.6-2.1,1-2.9,1.5c-9.9,5-15,7.6-15.1,7.6c-0.3,0-1.4-0.4-3.3-1.2c-1.9-0.8-2.8-1.3-2.8-1.4
		c0-0.3,3.7-3.5,11-9.6c4.6-3.9,7.7-6.5,9.2-7.6c1.5-1.2,2.6-1.8,3.2-2c1-0.3,1.9-0.9,2.7-1.9C137.9,14.5,138.8,13.7,139.8,12.8z
		 M130.8,28.5c0-0.1-0.7-0.2-2.1-0.2c-1,0-1.6,0-2,0.1c-0.3,0.1-0.8,0.4-1.3,0.8c-0.5,0.4-0.9,0.7-1.2,0.8c-0.3,0.1-1.1,0.1-2.3,0.2
		c-1.4,0-2.1,0.1-2.1,0.2c0,0.2,0.4,0.3,1.3,0.3c0.8,0,1.4,0,1.7,0.1c0.2,0.1,0.3,0.1,0.3,0.3c0,0.2-0.2,0.4-0.7,0.6
		c-0.5,0.2-1,0.3-1.6,0.3h-0.1l-0.7,0.1c0,0,0.2,0,0.6,0c0.7,0.1,1,0.1,1,0.3c0,0.1-0.3,0.4-1,1l-1,1l1.9-0.9c1.3-0.6,2.3-1,2.9-1.1
		c0.7-0.1,1-0.3,1-0.5c0-0.3,0.3-0.5,1-0.8s1.3-0.4,2-0.4c0.8,0,1.2-0.1,1.2-0.4c0-0.1-0.2-0.1-0.5-0.1c-0.2-0.1,0-0.3,0.7-0.8
		C130.4,28.9,130.8,28.6,130.8,28.5z M123.8,28.5c0-0.1-0.2-0.1-0.5-0.1c-0.4,0-0.6,0.1-0.4,0.1C123.2,28.6,123.5,28.6,123.8,28.5z"
		/>
	<path d="M179.7,35.2c-0.1,0-4.5,0.6-13.1,1.9s-12.9,1.9-13,1.9c-0.2,0-1-0.4-2.4-1.3c-1.5-0.9-2.2-1.4-2.2-1.5
		c0-0.2,1.1-1.4,3.4-3.6l3.4-3.3h1.5c0.1,0,0.4,0,0.9,0c0.5,0,0.9,0,1.2,0c0.3,0,0.7,0,1.4,0c0.6,0,1.1,0,1.4,0h1.5
		c1,0,1.5-0.1,1.5-0.2c0-0.1-0.1-0.1-0.2-0.2c-0.3-0.2-1.2-0.3-2.6-0.3h-1.5h-1.1c-1.9,0-2.8,0-2.8-0.1c0-0.2,1.3-1.6,3.8-4l4-3.9
		l7.6,0.2c6.2,0.1,10.6,0.2,13.3,0.3l5.7,0.2c-0.8,0.7-1.6,1.6-2.4,2.5h-5.6c-2.6,0-4.2,0-4.9,0.1c-0.7,0.1-1.2,0.2-1.4,0.4
		c-0.3,0.2-0.7,0.4-1.3,0.4c-0.5,0.1-1.6,0.1-3.3,0.1h-3.9l-0.5,0.8l-0.6,0.8h8.1h2.8c2,0,3.3,0,3.9,0.1c0.7,0.1,1,0.2,1,0.4
		c0,0.1-0.3,0.5-1,1.3c-0.5,0.6-1.2,0.9-2,1c-0.8,0.1-4.2,0.4-10,0.9c-3.7,0.3-5.8,0.6-6.3,0.8c-0.3,0.1-0.7,0.5-1.2,1.1
		c-0.6,0.8-0.9,1.2-0.9,1.4c0,0.1,0.1,0.1,0.3,0.1c0.5,0,4.2-0.4,11-1.1c5-0.6,7.7-0.8,8.2-0.8c0.3,0,0.5,0,0.5,0.1
		c0.1,0.1,0.1,0.1,0.1,0.3c0,0.2-0.4,0.9-1.1,1.9C180.3,34.7,179.9,35.2,179.7,35.2z M161.5,33.9c-0.2-0.2-0.6-0.2-1.2-0.2
		c-3.1,0.1-4.8,0.3-5.1,0.5c-0.1,0.1-0.1,0.1-0.1,0.1c0,0.1,0.6,0.1,1.7,0.1h1.6C160.4,34.4,161.5,34.3,161.5,33.9
		C161.5,34,161.5,34,161.5,33.9C161.5,34,161.5,34,161.5,33.9z M159.4,27.6c0-0.2-0.1-0.3-0.4-0.3c-0.2,0-0.4,0.1-0.4,0.3
		c0,0.2,0.1,0.3,0.4,0.3C159.3,27.8,159.4,27.8,159.4,27.6z M165.9,27c0.4-0.1,0.4-0.2,0-0.2c-0.1,0-0.3,0-0.6,0
		c-0.8,0-1.5,0.1-2.3,0.2c-0.5,0.1-0.6,0.2-0.2,0.2h0.9C164.7,27.3,165.4,27.2,165.9,27z M166.5,34c0-0.2-0.5-0.3-1.7-0.3
		c-1.1,0-1.7,0.1-1.7,0.3s0.6,0.3,1.7,0.3C165.9,34.2,166.5,34.1,166.5,34z M167,27c0.1,0,0.2,0,0.2-0.1s-0.1-0.1-0.2-0.1
		s-0.2,0-0.2,0.1S166.9,27,167,27z M167.5,33.9c0.3,0.1,0.5,0.1,0.7,0c0.1-0.1,0.1-0.1-0.1-0.1c-0.1,0-0.2,0-0.3,0
		c-0.2,0-0.3,0-0.4,0C167.3,33.8,167.3,33.8,167.5,33.9z M168.4,27.6c0-0.2-0.1-0.3-0.2-0.3c-0.1,0-0.2,0.1-0.4,0.3
		c-0.1,0.1,0,0.2,0.1,0.2C168.2,27.8,168.4,27.8,168.4,27.6z"/>
	<path d="M206.9,20.6l0.7-1.1l2.7,0.2c11.2,0.6,18.4,0.9,21.5,0.9c0.7,0,1.4,0.4,2.1,1.2c0.7,0.8,1.1,1.2,1.1,1.3l-8.1,1.9
		c-5.4,1.2-8.1,1.9-8.1,2c0,0.1,2.2,0.7,6.5,1.8l6.5,1.8l-4.4,3l-2.8-0.5c-2.2-0.4-3.2-0.8-3.2-0.9c0-0.1,0.2-0.1,0.7-0.1
		c2.7-0.1,4-0.3,4-0.4c0-0.1-0.9-0.1-2.6-0.1c-1.9,0-2.9,0.1-3.2,0.3c-0.3,0.2-0.5,0.2-0.7,0c-0.1-0.2-0.4-0.3-0.9-0.3
		c-0.4,0-1.6-0.3-3.5-0.8c-1.9-0.5-3.6-1-5.2-1.6c-1.4-0.5-2.2-0.8-2.5-0.8c-0.1,0-0.6,0.7-1.6,2c-1,1.3-2,2.6-3,3.9l-1.5,2h-0.1
		c-0.2,0-0.7-0.4-1.6-1.1c-0.9-0.7-1.3-1.2-1.3-1.4c0-0.4,0.5-1.5,1.6-3.1C203,26.5,205.3,23.1,206.9,20.6z M222.6,22.6
		c-0.6-0.1-2.7-0.2-6.3-0.2h-1.8c-2.2,0-3.5,0.1-4,0.3c-0.5,0.2-0.8,0.6-0.8,1.3v0.3c0,0.3,0.1,0.4,0.2,0.5c0.1,0.1,0.4,0.1,0.8,0.2
		h0.1c0.9,0,3.1-0.3,6.6-1C220.9,23.2,222.6,22.8,222.6,22.6C222.6,22.6,222.6,22.6,222.6,22.6z M222,30.2c0-0.2,0-0.3-0.1-0.3
		c-0.2,0-0.3,0.1-0.4,0.3c0,0.1,0.1,0.2,0.2,0.2C221.9,30.4,222,30.4,222,30.2z"/>
	<path d="M263.6,13.9c4-5.4,6-8.1,6.1-8.1l0.9,0.3c0.3,0.1,0.5,0.2,0.5,0.3s-0.1,0.3-0.4,0.7c-0.4,0.5-0.4,0.8-0.2,0.8
		c0.1,0.1,1.1,0.2,2.9,0.3l2.6,0.2l1.2,6.1c0.8,4,1.3,6.2,1.5,6.5c0.2,0.3,0.5,0.1,0.9-0.5l0.1-0.3c1.5-2.3,3.3-5,5.5-8.1
		c2.2-3.1,3.5-4.8,3.9-5.2c0.4-0.5,0.7-0.7,0.9-0.5c0,0,0.1,0.1,0.2,0.3c0.2,0.3,0.4,0.5,0.8,0.5c0.3,0.1,1.1,0.2,2.4,0.3
		c1.7,0.2,2.7,0.4,3.1,0.5c0.3,0.1,0.5,0.4,0.5,0.8c0,0.3,0.1,0.6,0.3,0.8c0.2,0.2,0.7,0.4,1.4,0.8l2,0.9c0,1-0.6,3.9-1.8,8.6
		c-1.2,5.1-1.8,8.1-1.8,8.8c0,0.4,0.1,0.8,0.2,1c0.2,0.5,0.2,0.8,0.2,1c0,0.4-0.5,1.4-1.4,3.1l-1.6,2.8l-1.3,0l-1.3-0.1l-0.9-3.1
		c-0.4-1.4-0.6-2.6-0.6-3.6v-0.2c0.5-2,1-5.7,1.4-11c0.2-1.8,0.3-3.1,0.4-3.7c0.2-0.6,0.1-1-0.1-1c-0.2,0-0.8,0.8-2,2.5
		s-2.2,3.2-3.1,4.7c-0.4,0.6-0.7,1-0.9,1c-0.1,0-0.2,0.2-0.3,0.5c0,0.3-1.1,2-3.1,5s-3.1,4.6-3.3,4.6h-0.1c-0.4,0-1.5-0.5-3.2-1.4
		c-1.8-1-2.7-1.6-2.8-1.9c-0.2-0.4-0.2-0.7-0.2-1.1c0-0.5,0.2-0.8,0.5-0.8c0.2,0,0.4,0.1,0.6,0.4c0.1,0.2,0.3,0.3,0.5,0.3
		c0.3,0,0.6-0.3,0.7-0.8c0-0.3,0.3-0.3,0.7-0.2c0.3,0.1,0.3,0.3,0.1,0.6c-0.2,0.1-0.3,0.2-0.3,0.3c0,0.1,0,0.1,0.2,0.1
		c0.1,0,0.3,0,0.6,0c0.4,0,0.7,0,0.8-0.1c0.1-0.1,0.2-0.3,0.2-0.7c0-0.5-0.2-0.8-0.5-0.8c-0.1,0-0.4,0-0.9,0.1h-0.6
		c-0.7,0-1.2,0-1.4-0.1c-0.4-0.1-0.6-0.1-0.7,0.3c0,0.1,0,0.2-0.1,0.2c-0.1,0-0.3-0.4-0.5-1.1c-0.2-0.7-0.4-1.3-0.4-1.7v-1l6.3,0.1
		c1.2,0,2.6,0,4.1,0c1.4,0,2.1-0.1,2.1-0.2c0-0.2-0.4-0.3-1.3-0.4c-0.9-0.1-2.5-0.1-5-0.2c-4.2-0.1-6.3-0.2-6.4-0.3
		c-0.2-0.1-0.5-1.3-0.9-3.7c-0.5-2.4-0.8-3.6-0.8-3.6c-0.2,0-2,2.4-5.4,7.2c-5,6.9-7.8,10.8-8.4,11.6l-2.6,0.5
		c-1.7,0.3-2.7,0.6-3.1,0.7c-0.2,0.1-1.3,1.8-3.1,5.1c-1.8,3.3-2.8,5-2.9,5.1c-0.1,0.1-0.2,0.1-0.4,0.1c-0.3,0-0.7-0.2-1.1-0.7
		c-0.4-0.5-0.7-1-1-1.7l-0.6-1.7l0.9-1.1c0.4-0.5,0.8-0.8,1-1c0.3-0.2,0.7-0.3,1.2-0.3l1.3-0.1l3.1-4.8c1.5-2.4,3.1-4.7,4.8-7
		c1.7-2.3,2.6-3.4,2.9-3.5c0.2-0.1,0.3-0.2,0.3-0.5C257.5,22.1,259.6,19.3,263.6,13.9z M262.1,22.1c-0.1-0.1-0.3-0.2-0.5-0.2
		c-0.2,0-0.5,0.1-0.7,0.2c-0.2,0.1-0.3,0.3-0.3,0.4c0,0.3,0.4,0.4,1.3,0.4c0.5,0,1-0.1,1.3-0.2c0.5-0.1,0.7-0.3,0.6-0.5
		c-0.1-0.1-0.3-0.2-0.7-0.1C262.6,22.3,262.3,22.2,262.1,22.1z M282.8,20.3c0.3,0,0.3-0.1-0.1-0.4c0-0.1-0.1-0.1-0.1-0.1
		c-0.1,0-0.2,0.1-0.2,0.3C282.4,20.2,282.5,20.3,282.8,20.3z M282.8,19.5c0.2,0.1,0.3,0.1,0.5,0c0-0.1-0.1-0.1-0.2-0.2
		C282.8,19.3,282.7,19.3,282.8,19.5z"/>
	<path d="M320.6,23.1l2.2-2.1l7.6,0.1c5.3,0.1,8.9,0.2,10.8,0.3l3.1,0.2l-0.2,0.7c-0.2,0.6-0.4,1.3-0.5,2.1c-0.2,1-0.5,1.6-1,1.9
		c-0.6,0.3-1.5,1.8-2.8,4.5l-1.9,4l-1.7,0.2c-1.2,0.1-1.8,0.1-1.8,0c0-0.1,0.3-1,0.8-2.7c0.5-1.6,0.8-2.6,0.8-2.7
		c0-0.1-0.2-0.1-0.5-0.1c-0.8,0-2,0.1-3.8,0.2c-2.7,0.2-5.3,0.4-7.8,0.5c-1.8,0.1-2.9,0.1-3.3,0.2c-0.4,0.1-0.8,0.2-1,0.5
		c-0.2,0.3-0.5,0.5-0.8,0.5c-0.3,0.1-0.9,0.1-1.9,0.1c-1.5,0-2.5,0.1-2.8,0.2c-0.2,0.1-0.2,0.2-0.2,0.2c0,0.2,0.6,0.3,1.8,0.3
		c0.7,0,1.3,0,1.7,0c1.8-0.1,2.7-0.4,2.8-0.7c0.2-0.3,0.5-0.5,0.9-0.5c0.2,0.1,0.3,0.1,0.4,0.2c0,0.1-0.8,1.2-2.4,3.3l-2.4,3.1
		l-2.1,0.5c-1,0.3-1.7,0.4-2,0.4c-0.2,0-0.4,0-0.6-0.1c0,0-0.2-0.1-0.5-0.3c-0.3-0.2-0.6-0.3-0.9-0.5c-0.3-0.2-0.7-0.4-0.9-0.5
		l-1.8-1l1.9-1.9c1.3-1.3,2.1-1.9,2.4-1.9c0.2,0,0.3-0.1,0.3-0.3c0-0.3,0.8-1.3,2.5-3l2.7-2.6l1.8-0.1c1.2-0.1,1.9-0.3,2-0.5
		c0.1-0.1-0.1-0.2-0.5-0.2l-0.9,0c-1,0.1-1.5,0.1-1.5,0C318.5,25.2,319.2,24.5,320.6,23.1z M320.7,27.7c0-0.1-0.1-0.1-0.4-0.1
		s-0.4,0.1-0.4,0.3c0,0.2,0.2,0.2,0.6,0C320.6,27.8,320.7,27.7,320.7,27.7z M326.7,28.1c0-0.1-0.2-0.2-0.5-0.3
		c-0.3-0.1-0.6-0.1-0.9,0c-0.6,0.1-0.7,0.3-0.3,0.5c0.2,0.1,0.4,0.1,0.7,0.1C326.3,28.3,326.7,28.3,326.7,28.1z M337.7,25.3l0.4-1.3
		c0-0.1-0.1-0.1-0.4-0.1c-0.5,0-1.1,0.1-1.8,0.2c-0.7,0.1-1.1,0.2-1.2,0.4c-0.2,0.3-1.6,0.4-4.2,0.4h-3.9l-0.5,0.8l-0.6,0.8h2
		c1.1,0,3,0.1,5.9,0.2l3.9,0.2L337.7,25.3z"/>
	<path d="M365.3,23.8c2.8-0.8,4.4-1.2,4.7-1.2c0.2,0,0.5,0.2,0.9,0.7c0.4,0.5,0.5,0.9,0.5,1.2c0,0.1,0,0.1,0,0.2s0,0.1,0,0.2
		c0,0.5,0.4,1.4,1.1,2.6c0.7,1.2,1.3,1.9,1.7,2c0.5,0.1,0.7,0.4,0.7,1.1c0,0.4-0.2,0.6-0.5,0.6s-0.6-0.1-0.9-0.3
		c-0.3-0.2-0.4-0.5-0.4-0.7c0-0.2-0.3-0.6-0.9-1c-0.6-0.4-1.2-0.7-1.7-0.8c-0.5-0.1-1-0.7-1.7-1.6c-0.2-0.3-0.3-0.5-0.5-0.7
		c-0.2-0.2-0.3-0.4-0.5-0.5c-0.1-0.1-0.2-0.2-0.2-0.1c-4.4,1.5-6.7,2.3-6.8,2.3c-0.2,0-0.8,0.2-1.8,0.7c-1,0.5-1.5,0.7-1.5,0.9
		c0,0.1,1.9,0.6,5.6,1.7c2.4,0.7,4,1.1,5,1.3c1,0.2,1.9,0.3,2.9,0.3h2.3l0.2,2c0.1,0.8,0.1,1.4,0.1,1.6c0,1.1-0.4,1.7-1.2,1.8
		c-2.9,0.3-5.7,0.5-8.6,0.8c-4.1,0.4-6.5,0.5-7.3,0.5c-0.6,0-1.2-0.1-1.8-0.3c-0.8-0.3-1.4-0.8-1.8-1.6c-0.3-0.7-0.7-1.2-1.2-1.4
		c-0.4-0.2-0.6-0.5-0.6-0.9c0-0.2,0-0.3,0.1-0.4c0.1-0.1,0.3-0.1,0.6-0.1c0,0,0.6,0,1.5,0.1c1.3,0.1,2.3,0.1,3.1,0.1
		c0.6,0,0.9,0.1,0.9,0.3c0,0.2-0.2,0.3-0.7,0.4c-0.8,0.1-0.9,0.4-0.3,0.8c0.3,0.2,0.3,0.5,0.1,0.8c-0.2,0.2-0.3,0.4-0.3,0.5
		c0,0.3,0.4,0.4,1.3,0.4c0.7,0,1.6-0.1,2.9-0.3c0.5-0.1,1.1-0.1,1.9-0.2c0.8-0.1,1.4-0.2,1.9-0.2c0.5-0.1,0.9-0.1,1.1-0.1
		c0.7-0.1,1.4-0.3,2.1-0.8c0.7-0.4,1.1-0.9,1.1-1.2c0-0.3-0.3-0.5-1-0.8c-0.7-0.3-1.4-0.4-2.1-0.4c-2.1,0-5-0.5-8.6-1.4
		c-1.5-0.4-2.5-0.7-2.9-0.8c-0.4-0.2-0.6-0.4-0.7-0.8c-0.1-0.5,0-0.9,0.2-1c0.3-0.1,0.2-0.4-0.5-0.7l-0.9-0.5l1.1-0.6
		C355.1,27,359.1,25.6,365.3,23.8z"/>
	<path d="M381.9,21.8c0-0.3,0.3-0.5,0.9-0.5c0.3,0,0.6,0.1,0.9,0.3c0.2,0.1,2.3,0.3,6.2,0.5c2.7,0.1,4.3,0.2,4.8,0.2
		c0.9,0,1.5-0.1,1.8-0.3c0.4-0.2,1-0.3,1.6-0.3c1.1,0,1.7,0.2,1.7,0.5c0,0.1,0.1,0.2,0.2,0.2c0.2,0.1,0.5,0.1,1,0.2
		c0.5,0.1,1.3,0.1,2.3,0.2c1,0.1,2.3,0.1,3.9,0.2c3.1,0.2,4.8,0.4,5.4,0.6c1,0.3,2.2,0.5,3.5,0.5c1.6,0.1,2.4,0.3,2.4,0.4
		c0,0.3-0.5,0.4-1.6,0.4c-0.7,0-2.5-0.1-5.3-0.4l-5-0.5l-1.5,0.5c-0.8,0.3-1.9,0.5-3.3,0.5h-0.9h-1.1c-1.2,0-1.8,0-2,0.1
		c-0.2,0.2-1.9,2.7-4.9,7.3c-3.1,4.7-4.8,7.1-5.1,7.1c-0.6,0-0.9-0.4-0.9-1.2c0-0.6,0-1.1,0.1-1.6c0.2-1.4,0.5-2.1,0.9-2.1
		c0.4,0,0.7-0.1,0.9-0.4c0.2-0.3,1.1-1.9,2.8-4.9c1.6-3,2.4-4.5,2.4-4.7s-0.5-0.2-1.5-0.2c-1.5,0-3.3-0.2-5.3-0.4
		c-2-0.3-3.2-0.5-3.6-0.8C382.5,22.8,381.9,22.2,381.9,21.8z M394.6,27.4c0.1,0,0.2,0,0.2-0.1s-0.1-0.1-0.2-0.1
		c-0.1,0-0.2,0-0.2,0.1S394.5,27.4,394.6,27.4z M399.1,24.1c0.1,0,0.2,0,0.2-0.1s-0.1-0.1-0.2-0.1s-0.2,0-0.2,0.1
		S399,24.1,399.1,24.1z"/>
	<path d="M456.3,35.2c-0.1,0-4.5,0.6-13.1,1.9c-8.6,1.3-12.9,1.9-13,1.9c-0.2,0-1-0.4-2.4-1.3c-1.5-0.9-2.2-1.4-2.2-1.5
		c0-0.2,1.1-1.4,3.4-3.6l3.4-3.3h1.5c0.1,0,0.4,0,0.9,0s0.9,0,1.2,0c0.3,0,0.7,0,1.4,0s1.1,0,1.4,0h1.5c1,0,1.5-0.1,1.5-0.2
		c0-0.1-0.1-0.1-0.2-0.2c-0.3-0.2-1.2-0.3-2.6-0.3h-1.5h-1.1c-1.9,0-2.8,0-2.8-0.1c0-0.2,1.3-1.6,3.8-4l4-3.9l7.6,0.2
		c6.2,0.1,10.6,0.2,13.3,0.3l5.7,0.2c-0.8,0.7-1.6,1.6-2.4,2.5h-5.6c-2.6,0-4.2,0-4.9,0.1c-0.7,0.1-1.2,0.2-1.4,0.4
		c-0.3,0.2-0.7,0.4-1.3,0.4c-0.5,0.1-1.6,0.1-3.3,0.1h-3.9l-0.6,0.8l-0.6,0.8h8.1h2.8c2,0,3.3,0,3.9,0.1c0.7,0.1,1,0.2,1,0.4
		c0,0.1-0.3,0.5-1,1.3c-0.5,0.6-1.2,0.9-2,1s-4.2,0.4-10,0.9c-3.7,0.3-5.8,0.6-6.3,0.8c-0.3,0.1-0.7,0.5-1.2,1.1
		c-0.6,0.8-0.9,1.2-0.9,1.4c0,0.1,0.1,0.1,0.3,0.1c0.5,0,4.2-0.4,11-1.1c5-0.6,7.7-0.8,8.2-0.8c0.3,0,0.5,0,0.5,0.1
		c0.1,0.1,0.1,0.1,0.1,0.3c0,0.2-0.4,0.9-1.1,1.9C456.9,34.7,456.4,35.2,456.3,35.2z M438,33.9c-0.2-0.2-0.6-0.2-1.2-0.2
		c-3.1,0.1-4.8,0.3-5.1,0.5c-0.1,0.1-0.1,0.1-0.1,0.1c0,0.1,0.5,0.1,1.7,0.1h1.6C437,34.4,438,34.3,438,33.9C438,34,438,34,438,33.9
		C438,34,438,34,438,33.9z M436,27.6c0-0.2-0.1-0.3-0.4-0.3c-0.2,0-0.4,0.1-0.4,0.3c0,0.2,0.1,0.3,0.4,0.3
		C435.8,27.8,436,27.8,436,27.6z M442.4,27c0.4-0.1,0.4-0.2,0-0.2c-0.1,0-0.3,0-0.5,0c-0.8,0-1.5,0.1-2.3,0.2
		c-0.5,0.1-0.6,0.2-0.2,0.2h0.9C441.2,27.3,442,27.2,442.4,27z M443,34c0-0.2-0.6-0.3-1.7-0.3c-1.1,0-1.7,0.1-1.7,0.3
		s0.6,0.3,1.7,0.3C442.4,34.2,443,34.1,443,34z M443.5,27c0.1,0,0.2,0,0.2-0.1s-0.1-0.1-0.2-0.1s-0.2,0-0.2,0.1S443.4,27,443.5,27z
		 M444,33.9c0.3,0.1,0.5,0.1,0.7,0c0.1-0.1,0.1-0.1-0.1-0.1c-0.1,0-0.2,0-0.3,0c-0.2,0-0.3,0-0.4,0C443.8,33.8,443.9,33.8,444,33.9z
		 M444.9,27.6c0-0.2-0.1-0.3-0.2-0.3s-0.2,0.1-0.4,0.3c-0.1,0.1,0,0.2,0.1,0.2C444.7,27.8,444.9,27.8,444.9,27.6z"/>
	<path d="M483.4,20.6l0.7-1.1l2.7,0.2c11.2,0.6,18.4,0.9,21.5,0.9c0.7,0,1.4,0.4,2.1,1.2c0.7,0.8,1.1,1.2,1.1,1.3l-8.1,1.9
		c-5.4,1.2-8.1,1.9-8.1,2c0,0.1,2.2,0.7,6.5,1.8l6.5,1.8l-4.4,3l-2.8-0.5c-2.2-0.4-3.2-0.8-3.2-0.9c0-0.1,0.2-0.1,0.7-0.1
		c2.7-0.1,4-0.3,4-0.4c0-0.1-0.9-0.1-2.6-0.1c-1.9,0-2.9,0.1-3.2,0.3c-0.3,0.2-0.6,0.2-0.7,0c-0.1-0.2-0.4-0.3-0.9-0.3
		c-0.4,0-1.6-0.3-3.5-0.8c-1.9-0.5-3.6-1-5.2-1.6c-1.4-0.5-2.2-0.8-2.5-0.8c-0.1,0-0.6,0.7-1.6,2c-1,1.3-2,2.6-3,3.9l-1.5,2h-0.1
		c-0.2,0-0.7-0.4-1.6-1.1c-0.9-0.7-1.3-1.2-1.3-1.4c0-0.4,0.5-1.5,1.6-3.1C479.5,26.5,481.8,23.1,483.4,20.6z M499.1,22.6
		c-0.6-0.1-2.7-0.2-6.3-0.2H491c-2.2,0-3.5,0.1-4,0.3c-0.5,0.2-0.8,0.6-0.8,1.3v0.3c0,0.3,0.1,0.4,0.2,0.5c0.1,0.1,0.4,0.1,0.8,0.2
		h0.1c0.9,0,3.1-0.3,6.6-1C497.4,23.2,499.2,22.8,499.1,22.6C499.2,22.6,499.1,22.6,499.1,22.6z M498.6,30.2c0-0.2,0-0.3-0.1-0.3
		c-0.2,0-0.3,0.1-0.4,0.3c0,0.1,0.1,0.2,0.2,0.2C498.4,30.4,498.6,30.4,498.6,30.2z"/>
</g>
<line class="st0" x1="0" y1="52" x2="515" y2="52"/>
<polygon class="st1" points="56.4,55 0.3,55 0.3,52 57.5,52 "/>
<g>
</g>
<g>
</g>
<g>
</g>
<g>
</g>
<g>
</g>
<g>
</g>
</svg>
