<?xml version="1.0" encoding="utf-8"?>
<!-- Generator: Adobe Illustrator 24.3.0, SVG Export Plug-In . SVG Version: 6.00 Build 0)  -->
<svg version="1.1" id="Слой_2_1_" xmlns="http://www.w3.org/2000/svg" xmlns:xlink="http://www.w3.org/1999/xlink" x="0px"
	 y="0px" viewBox="0 0 50 50" style="enable-background:new 0 0 50 50;" xml:space="preserve">
<style type="text/css">
	.st0{fill:none;stroke:#000000;stroke-width:2;stroke-miterlimit:10;}
	.st1{stroke:#000000;stroke-miterlimit:10;}
</style>
<path class="st0" d="M34,42c-9,0.1-17.9,0.1-26.9,0.2c-0.4,0-1-0.2-1.5-0.7C5,40.9,5,40.2,4.9,39.9c-0.1-1.4,0-28.5,0-29.8
	C5,9.9,5,9.2,5.6,8.5c0.6-0.6,1.3-0.7,1.5-0.7c12,0,23.9,0,35.8,0c0.2,0,0.8,0.1,1.3,0.6C45,9,45.1,9.8,45.1,10c0,0.5,0,11,0,12.9"
	/>
<line class="st0" x1="4.9" y1="14" x2="45.2" y2="14"/>
<path class="st0" d="M48.9,31.9c0,3.8-3.1,6.9-6.9,6.9c-2.1,0-4-0.9-5.2-2.4c-1.1-1.2-1.7-2.8-1.7-4.6c0-3.8,3.1-6.9,6.9-6.9
	S48.9,28.1,48.9,31.9z"/>
<path class="st0" d="M37.2,48.9V37V48.9z"/>
<polygon class="st0" points="41.5,45.8 37.2,48.9 37.2,48.6 "/>
<polygon class="st0" points="47,49.4 41.5,45.5 41.5,45.8 "/>
<polyline class="st0" points="47,37 47,49.6 46.7,49.2 "/>
<circle class="st1" cx="9.3" cy="10.9" r="1.1"/>
<circle class="st1" cx="14" cy="10.9" r="1.1"/>
<circle class="st1" cx="18.4" cy="10.9" r="1.1"/>
</svg>
