<?xml version="1.0" encoding="utf-8"?>
<!-- Generator: Adobe Illustrator 24.3.0, SVG Export Plug-In . SVG Version: 6.00 Build 0)  -->
<svg version="1.1" xmlns="http://www.w3.org/2000/svg" xmlns:xlink="http://www.w3.org/1999/xlink" x="0px" y="0px"
	 viewBox="0 0 50 50" style="enable-background:new 0 0 50 50;" xml:space="preserve">
<style type="text/css">
	.st0{stroke:#000000;stroke-miterlimit:10;}
	.st1{fill:#FFFFFF;stroke:#000000;stroke-miterlimit:10;}
	.st2{fill:none;stroke:#000000;stroke-miterlimit:10;}
</style>
<g id="Слой_2">
	<path class="st0" d="M1.83,48.11c-0.04-3.72-0.07-7.44-0.11-11.17c1.85-2.13,6.04-6.35,12.83-8.72c1.57-0.55,9.61-3.2,19.28-0.17
		c7.57,2.38,12.23,7.02,14.22,9.28c0.04,3.54,0.07,7.07,0.11,10.61C32.72,48,17.28,48.06,1.83,48.11z"/>
</g>
<g id="Слой_3">
	<path class="st1" d="M19.55,5.86c2.19-1.87,4.87-1.87,5.61-1.84c2.65,0.09,4.45,1.41,5.03,1.85c4.25,3.21,3.95,9.09,3.91,9.68
		c0.24-0.09,2.03-0.75,3.33,0.17c1.82,1.28,1.65,4.9-0.22,6.06c-0.72,0.45-2.87,0.16-3,0.11c0.06,0.81,0.07,1.98-0.22,3.33
		c-0.24,1.08-0.93,4.25-3.68,6.17c-2.96,2.06-7.13,1.86-9.95-0.03c-2.53-1.7-3.4-4.37-3.75-5.46c-0.12-0.36-0.43-1.38-0.56-4.46
		c-0.15-3.69-0.27-6.45,0.67-9.89C17.42,9,17.89,7.28,19.55,5.86z"/>
	<path class="st1" d="M34.11,15.56c0.04,2.11,0.07,4.22,0.11,6.33C34.19,19.78,34.15,17.67,34.11,15.56z"/>
	<path class="st1" d="M36.5,9.72"/>
	<path class="st2" d="M36.34,15.29c0.27-4.78-2.08-9.23-6.02-11.36c-0.47-0.26-5.71-2.98-10.69-0.01c-3.98,2.37-4.83,6.61-4.96,7.3
		c-0.02,2.39-0.04,4.78-0.06,7.17"/>
	
		<rect x="12.93" y="17.98" transform="matrix(6.123234e-17 -1 1 6.123234e-17 -4.123 33.5992)" class="st0" width="3.62" height="1.75"/>
</g>
<g id="Слой_4">
	<path class="st1" d="M35.72,24.5"/>
	<path class="st2" d="M26.06,27.83c1,0.24,3.2,0.63,5.59-0.33c0.87-0.35,2.33-0.94,3.3-2.5c0.69-1.12,0.81-2.23,0.83-2.83"/>
	<ellipse class="st0" cx="24.69" cy="27.39" rx="1.92" ry="1.33"/>
	<path class="st1" d="M56.94,41.94"/>
</g>
</svg>
