<?xml version="1.0" encoding="utf-8"?>
<!-- Generator: Adobe Illustrator 24.3.0, SVG Export Plug-In . SVG Version: 6.00 Build 0)  -->
<svg version="1.1" id="Слой_2_1_" xmlns="http://www.w3.org/2000/svg" xmlns:xlink="http://www.w3.org/1999/xlink" x="0px"
	 y="0px" viewBox="0 0 50 50" style="enable-background:new 0 0 50 50;" xml:space="preserve">
<style type="text/css">
	.st0{fill:none;stroke:#FFFFFF;stroke-width:4;}
	.st1{fill:#FFFFFF;stroke:#FFFFFF;}
</style>
<circle class="st0" cx="25" cy="25.5" r="20.4"/>
<path class="st1" d="M17.6,18c0.8,1.3,2.4,3.2,4.9,4c0.8,0.2,1.9,0.6,2.7,0.1c0.8-0.6,0.4-1.5,1.3-2.8c0.1-0.2,1.4-2.1,3.4-2.1
	c1.6,0,2.7,1.3,2.9,1.6c0.6-0.2,1.2-0.5,1.9-0.7c-0.2,0.5-0.4,1-0.6,1.6c0.5,0,1.1,0,1.6,0c-0.7,0.7-1.4,1.7-1.9,2.8
	c-0.5,1.2-0.4,1.8-0.9,3.5c-0.3,0.9-0.6,2-1.3,3.1c-1.2,2.1-2.8,3.2-3.5,3.6c-0.6,0.4-1.2,0.8-2.3,1.2c-1,0.3-1.8,0.4-2.9,0.4
	c-1.6,0-3.1,0.1-4.7-0.6c-0.9-0.4-1.6-0.9-2-1.2c0.7,0,2.1-0.1,3.5-0.8c1-0.5,1.6-1.1,2.1-1.6c-0.4,0-1.3,0-2.3-0.5
	c-0.9-0.5-1.4-1.2-1.6-1.5c0.6-0.1,1.2-0.2,1.8-0.3c-0.5-0.3-1.4-0.9-2.2-1.8c-0.8-1-1.1-1.9-1.3-2.5c0.8,0,1.6,0,2.3-0.1
	c-0.1-0.1-1.7-1.1-1.8-2.9C16.8,19,17.4,18.2,17.6,18z"/>
</svg>
